<svg width="481" height="122" viewBox="0 0 481 122" fill="none" xmlns="http://www.w3.org/2000/svg">
<path d="M25.704 98.188C34.992 98.188 40.716 93.868 43.632 88.144V97H59.184V40.516H43.632V73.672C43.632 81.988 38.448 86.092 31.86 86.092C25.164 86.092 22.032 82.42 22.032 74.752V40.516H6.48V76.912C6.48 91.708 14.688 98.188 25.704 98.188ZM73.0409 97H88.7009V64.384C88.7009 56.068 93.7769 51.964 100.473 51.964C107.385 51.964 110.409 55.636 110.409 63.304V97H126.069V61.036C126.069 45.916 118.185 39.22 107.061 39.22C97.6649 39.22 91.5089 43.864 88.7009 49.48V40.516H73.0409V97ZM173.182 98.188C187.222 98.188 197.806 87.712 197.806 69.028V68.164C197.806 49.48 187.006 39.22 173.182 39.22C164.866 39.22 158.278 43.972 155.146 49.372V14.92H139.486V97H155.146V88.036C158.062 93.868 164.434 98.188 173.182 98.188ZM168.538 85.984C160.006 85.984 154.606 80.476 154.606 69.136V68.272C154.606 56.932 160.222 51.208 168.43 51.208C176.314 51.208 181.93 56.824 181.93 68.272V69.136C181.93 80.152 177.178 85.984 168.538 85.984ZM234.604 86.308C225.748 86.308 220.78 79.828 220.78 69.028V68.164C220.78 57.364 225.964 51.1 234.604 51.1C243.352 51.1 248.428 57.58 248.428 68.38V69.136C248.428 79.828 243.352 86.308 234.604 86.308ZM234.496 98.188C251.452 98.188 264.304 86.848 264.304 69.028V68.164C264.304 50.56 251.56 39.22 234.604 39.22C217.648 39.22 204.796 50.776 204.796 68.488V69.352C204.796 86.956 217.648 98.188 234.496 98.188ZM293.595 98.188C302.883 98.188 308.607 93.868 311.523 88.144V97H327.075V40.516H311.523V73.672C311.523 81.988 306.339 86.092 299.751 86.092C293.055 86.092 289.923 82.42 289.923 74.752V40.516H274.371V76.912C274.371 91.708 282.579 98.188 293.595 98.188ZM340.932 97H356.592V64.384C356.592 56.068 361.668 51.964 368.364 51.964C375.276 51.964 378.3 55.636 378.3 63.304V97H393.96V61.036C393.96 45.916 386.076 39.22 374.952 39.22C365.556 39.22 359.4 43.864 356.592 49.48V40.516H340.932V97Z" fill="#E6006E"/>
<rect x="453" y="10.4409" width="6.80315" height="27.5591" rx="2" fill="#E6006E"/>
<path d="M456.401 10.7165C456.401 10.7165 455.976 3 467.032 3C478.087 3 477.662 10.7165 477.662 10.7165" stroke="#E6006E" stroke-width="6" stroke-linecap="round" stroke-linejoin="round"/>
<rect x="411" y="43" width="54" height="54" rx="4" fill="#E6006E"/>
<rect x="432.094" y="64.0938" width="11.8125" height="11.8125" rx="2" fill="white"/>
<rect x="436.312" y="75.0625" width="3.375" height="21.9375" fill="white"/>
</svg>
